<svg width="32" height="32" viewBox="0 0 32 32" fill="none" xmlns="http://www.w3.org/2000/svg">
<rect width="32" height="32" fill="white" rx="4"/>
<path d="M16.0612 14.0047C14.7867 14.0047 13.695 13.8065 12.7861 13.41C11.8871 13.0037 11.1954 12.4289 10.7113 11.6856C10.2371 10.9423 10 10.0504 10 9.00976C10 7.95918 10.2371 7.06224 10.7113 6.31908C11.1954 5.57577 11.8871 5.00592 12.7861 4.61949C13.695 4.22316 14.7867 4.025 16.0612 4.025C17.3457 4.025 18.4373 4.22316 19.3363 4.61949C20.2354 5.00592 20.922 5.57577 21.3962 6.31908C21.8804 7.06224 22.1224 7.95918 22.1224 9.00976C22.1224 10.0504 21.8804 10.9423 21.3962 11.6856C20.922 12.4289 20.2354 13.0037 19.3363 13.41C18.4373 13.8065 17.3457 14.0047 16.0612 14.0047ZM16.0612 12.2951C16.8516 12.2951 17.5432 12.1762 18.1359 11.9383C18.7386 11.7005 19.2079 11.3388 19.5438 10.8531C19.8896 10.3675 20.0625 9.75308 20.0625 9.00976C20.0625 8.26648 19.8896 7.652 19.5438 7.16636C19.2079 6.68072 18.7386 6.31908 18.1359 6.08116C17.5432 5.83334 16.8516 5.70956 16.0612 5.70956C15.2807 5.70956 14.5842 5.83334 13.9716 6.08116C13.3591 6.31908 12.8799 6.68072 12.5342 7.16636C12.1884 7.652 12.0155 8.26648 12.0155 9.00976C12.0155 9.75308 12.1884 10.3675 12.5342 10.8531C12.8799 11.3388 13.3591 11.7005 13.9716 11.9383C14.5842 12.1762 15.2807 12.2951 16.0612 12.2951Z" fill="#1E1E1E"/>
<path d="M15.0979 24.3216H16.9245V27.9339H15.0979V24.3216ZM16.0612 25.154C14.7867 25.154 13.695 24.9558 12.7861 24.5594C11.8871 24.1531 11.1954 23.5782 10.7113 22.8349C10.2371 22.0917 10 21.1997 10 20.1591C10 19.1086 10.2371 18.2116 10.7113 17.4684C11.1954 16.7251 11.8871 16.1553 12.7861 15.7588C13.695 15.3525 14.7867 15.1494 16.0612 15.1494C17.3457 15.1494 18.4373 15.3525 19.3363 15.7588C20.2354 16.1553 20.922 16.7251 21.3962 17.4684C21.8804 18.2116 22.1224 19.1086 22.1224 20.1591C22.1224 21.1997 21.8804 22.0917 21.3962 22.8349C20.922 23.5782 20.2354 24.1531 19.3363 24.5594C18.4373 24.9558 17.3457 25.154 16.0612 25.154ZM16.0612 23.4444C16.8516 23.4444 17.5432 23.3255 18.1359 23.0877C18.7386 22.8498 19.2079 22.4881 19.5438 22.0025C19.8896 21.5169 20.0625 20.9024 20.0625 20.1591C20.0625 19.4158 19.8896 18.8014 19.5438 18.3158C19.2079 17.8302 18.7386 17.4684 18.1359 17.2306C17.5432 16.9828 16.8516 16.8589 16.0612 16.8589C15.2807 16.8589 14.5842 16.9828 13.9716 17.2306C13.3591 17.4684 12.8799 17.8302 12.5342 18.3158C12.1884 18.8014 12.0155 19.4158 12.0155 20.1591C12.0155 20.9024 12.1884 21.5169 12.5342 22.0025C12.8799 22.4881 13.3591 22.8498 13.9716 23.0877C14.5842 23.3255 15.2807 23.4444 16.0612 23.4444Z" fill="#1E1E1E"/>
<path d="M19.654 28V26.117L22.1405 26.117V28H19.654Z" fill="#1E1E1E"/>
</svg>
