<svg width="110" height="80" viewBox="0 0 110 80" fill="none" xmlns="http://www.w3.org/2000/svg">
<rect width="110" height="80" fill="white"/>
<path d="M49.6939 39.3125H45.2127V15.5644H49.6604V16.4674C51.1096 15.5978 52.3803 15.163 53.4728 15.163C54.6098 15.163 55.5907 15.3302 56.4156 15.6647C57.2405 15.9769 57.9205 16.4897 58.4556 17.2033C58.9906 17.8946 59.3919 18.8088 59.6595 19.946C59.927 21.0833 60.0608 22.4546 60.0608 24.0602C60.0608 25.6657 59.9159 27.0259 59.626 28.1408C59.3362 29.2334 58.8792 30.1254 58.2549 30.8167C57.653 31.4856 56.8727 31.965 55.914 32.2549C54.9553 32.5448 53.8072 32.6897 52.4695 32.6897C51.7338 32.6897 50.9423 32.6228 50.0952 32.4891L49.6939 32.4222V39.3125ZM52.6033 19.1767C51.7784 19.1767 50.9423 19.344 50.0952 19.6785L49.6939 19.8457V28.6091C50.6971 28.7429 51.5109 28.8098 52.1351 28.8098C53.4282 28.8098 54.3088 28.4307 54.777 27.6725C55.2675 26.9144 55.5127 25.6211 55.5127 23.7926C55.5127 20.7153 54.5429 19.1767 52.6033 19.1767Z" fill="#1E1E1E"/>
<path d="M76.9135 25.8329H67.0817C67.104 26.8586 67.3715 27.6056 67.8843 28.0739C68.3971 28.5199 69.1551 28.7429 70.1583 28.7429C72.2317 28.7429 74.0821 28.676 75.7096 28.5422L76.646 28.4418L76.7129 31.7532C74.1936 32.3776 71.875 32.6897 69.757 32.6897C67.2378 32.6897 65.4096 32.0208 64.2726 30.6829C63.1356 29.3449 62.5671 27.1708 62.5671 24.1605C62.5671 18.1621 65.0306 15.163 69.9577 15.163C74.8179 15.163 77.248 17.6827 77.248 22.7222L76.9135 25.8329ZM67.0482 22.4212H72.8337C72.8337 21.0833 72.6219 20.1579 72.1983 19.645C71.797 19.1098 71.0612 18.8423 69.9911 18.8423C68.921 18.8423 68.163 19.121 67.7171 19.6785C67.2935 20.2136 67.0705 21.1279 67.0482 22.4212Z" fill="#1E1E1E"/>
<path d="M84.9317 19.7788V32.2884H80.4505V15.5644H84.8983V16.5009C86.392 15.6089 87.7854 15.163 89.0785 15.163C90.1932 15.163 91.1184 15.3302 91.8541 15.6647C92.6121 15.9769 93.2141 16.4674 93.66 17.1364C94.1282 17.8054 94.4626 18.6416 94.6632 19.645C94.8639 20.6485 94.9642 21.8414 94.9642 23.224V32.2884H90.483V23.3577C90.483 21.9306 90.3158 20.8826 89.9814 20.2136C89.647 19.5224 88.9781 19.1767 87.9749 19.1767C87.0831 19.1767 86.2025 19.3328 85.333 19.645L84.9317 19.7788Z" fill="#1E1E1E"/>
<path d="M58.9498 48.284V55.2412C58.9944 55.7763 59.0835 56.1554 59.2173 56.3784C59.3511 56.5791 59.6297 56.724 60.0533 56.8132L59.9196 60.1915C58.7826 60.1915 57.8685 60.1134 57.1774 59.9573C56.5085 59.8012 55.8285 59.4891 55.1374 59.0208C53.5099 59.8012 51.8713 60.1915 50.2215 60.1915C46.7659 60.1915 45.038 58.363 45.038 54.706C45.038 52.9221 45.5174 51.6622 46.476 50.9264C47.4347 50.1682 48.9061 49.7222 50.8903 49.5884L54.4686 49.3209V48.284C54.4686 47.5927 54.3125 47.1244 54.0004 46.8791C53.6883 46.6116 53.1867 46.4778 52.4955 46.4778L46.2085 46.7454L46.0747 43.6347C48.4825 42.988 50.7566 42.6647 52.8968 42.6647C55.0594 42.6647 56.6089 43.1107 57.5452 44.0026C58.4816 44.8946 58.9498 46.3217 58.9498 48.284ZM54.4686 52.4315L51.4254 52.6991C50.1769 52.8106 49.5527 53.4796 49.5527 54.706C49.5527 55.9324 50.0989 56.5456 51.1913 56.5456C52.0385 56.5456 52.9637 56.4118 53.967 56.1443L54.4686 56.0105V52.4315Z" fill="#1E1E1E"/>
<path d="M75.2941 43.5343L75.2272 47.2471C73.8227 47.0687 72.6411 46.9349 71.6824 46.8457C70.7461 46.7565 69.9992 46.7119 69.4418 46.7119C68.3271 46.7119 67.6137 46.8122 67.3016 47.0129C66.9671 47.2136 66.7999 47.5258 66.7999 47.9495C66.7999 48.3732 67.0229 48.6742 67.4688 48.8526C67.6917 48.9418 68.0707 49.0533 68.6058 49.1871C69.1631 49.2986 69.8989 49.4323 70.8129 49.5884C71.7047 49.7445 72.4627 49.9564 73.087 50.2239C73.7112 50.4692 74.224 50.7926 74.6253 51.1939C75.0266 51.5953 75.3164 52.0859 75.4948 52.6657C75.6731 53.2454 75.7623 53.9478 75.7623 54.7729C75.7623 58.3853 73.5217 60.1915 69.0405 60.1915C67.5914 60.1915 65.8078 59.9908 63.6899 59.5894L62.6197 59.3887L62.7535 55.6425C64.158 55.8209 65.3285 55.9547 66.2649 56.0439C67.2235 56.1331 67.9815 56.1777 68.5389 56.1777C69.6313 56.1777 70.367 56.0662 70.746 55.8432C71.1251 55.6425 71.3146 55.3303 71.3146 54.9067C71.3146 54.483 71.1139 54.1708 70.7126 53.9701C70.3113 53.7917 69.2412 53.5465 67.5022 53.2343C66.6327 53.1005 65.8747 52.9221 65.2282 52.6991C64.5816 52.4538 64.0466 52.1416 63.623 51.7626C63.1994 51.3612 62.8761 50.8706 62.6532 50.2908C62.4525 49.6888 62.3522 48.9418 62.3522 48.0498C62.3522 47.1579 62.5083 46.3774 62.8204 45.7085C63.1548 45.0395 63.6007 44.482 64.158 44.0361C64.7377 43.5901 65.4177 43.2556 66.198 43.0326C67.0006 42.8096 67.8701 42.6981 68.8064 42.6981C69.453 42.6981 70.2221 42.7539 71.1139 42.8654C72.028 42.9546 73.0535 43.1107 74.1905 43.3337L75.2941 43.5343Z" fill="#1E1E1E"/>
<path d="M92.5059 53.3346H82.674C82.6963 54.3604 82.9638 55.1074 83.4766 55.5756C83.9894 56.0216 84.7474 56.2446 85.7506 56.2446C87.824 56.2446 89.6745 56.1777 91.302 56.0439L92.2383 55.9436L92.3052 59.2549C89.7859 59.8793 87.4673 60.1915 85.3493 60.1915C82.8301 60.1915 81.0019 59.5225 79.8649 58.1846C78.7279 56.8467 78.1594 54.6725 78.1594 51.6622C78.1594 45.6639 80.6229 42.6647 85.55 42.6647C90.4102 42.6647 92.8403 45.1844 92.8403 50.2239L92.5059 53.3346ZM82.6406 49.9229H88.426C88.426 48.585 88.2142 47.6596 87.7906 47.1467C87.3893 46.6116 86.6536 46.344 85.5834 46.344C84.5133 46.344 83.7553 46.6227 83.3094 47.1802C82.8858 47.7153 82.6629 48.6296 82.6406 49.9229Z" fill="#1E1E1E"/>
<path d="M28.6776 35.5105C25.8017 35.5105 23.3381 35.0646 21.287 34.1726C19.2582 33.2584 17.6976 31.965 16.6052 30.2926C15.5351 28.6202 15 26.6134 15 24.272C15 21.9083 15.5351 19.8903 16.6052 18.2179C17.6976 16.5455 19.2582 15.2633 21.287 14.3714C23.3381 13.4571 25.8017 13 28.6776 13C31.5759 13 34.0394 13.4571 36.0682 14.3714C38.097 15.2633 39.6465 16.5455 40.7166 18.2179C41.8091 19.8903 42.3553 21.9083 42.3553 24.272C42.3553 26.6134 41.8091 28.6202 40.7166 30.2926C39.6465 31.965 38.097 33.2584 36.0682 34.1726C34.0394 35.0646 31.5759 35.5105 28.6776 35.5105ZM28.6776 31.664C30.4612 31.664 32.0218 31.3964 33.3595 30.8613C34.7194 30.3261 35.7784 29.5122 36.5364 28.4195C37.3167 27.3269 37.7069 25.9444 37.7069 24.272C37.7069 22.5996 37.3167 21.2171 36.5364 20.1244C35.7784 19.0318 34.7194 18.2179 33.3595 17.6827C32.0218 17.1253 30.4612 16.8465 28.6776 16.8465C26.9164 16.8465 25.3446 17.1253 23.9624 17.6827C22.5801 18.2179 21.4988 19.0318 20.7185 20.1244C19.9382 21.2171 19.5481 22.5996 19.5481 24.272C19.5481 25.9444 19.9382 27.3269 20.7185 28.4195C21.4988 29.5122 22.5801 30.3261 23.9624 30.8613C25.3446 31.3964 26.9164 31.664 28.6776 31.664Z" fill="#1E1E1E"/>
<path d="M26.5039 58.7235H30.8513V66.8513H26.5039V58.7235ZM28.6776 60.5966C25.8017 60.5966 23.3381 60.1506 21.287 59.2586C19.2582 58.3444 17.6976 57.0511 16.6052 55.3787C15.5351 53.7063 15 51.6994 15 49.358C15 46.9944 15.5351 44.9763 16.6052 43.3039C17.6976 41.6315 19.2582 40.3493 21.287 39.4574C23.3381 38.5432 25.8017 38.086 28.6776 38.086C31.5759 38.086 34.0394 38.5432 36.0682 39.4574C38.097 40.3493 39.6465 41.6315 40.7166 43.3039C41.8091 44.9763 42.3553 46.9944 42.3553 49.358C42.3553 51.6994 41.8091 53.7063 40.7166 55.3787C39.6465 57.0511 38.097 58.3444 36.0682 59.2586C34.0394 60.1506 31.5759 60.5966 28.6776 60.5966ZM28.6776 56.75C30.4612 56.75 32.0218 56.4824 33.3595 55.9473C34.7194 55.4121 35.7784 54.5982 36.5364 53.5056C37.3167 52.4129 37.7069 51.0304 37.7069 49.358C37.7069 47.6856 37.3167 46.3031 36.5364 45.2105C35.7784 44.1178 34.7194 43.3039 33.3595 42.7688C32.0218 42.2113 30.4612 41.9326 28.6776 41.9326C26.9164 41.9326 25.3446 42.2113 23.9624 42.7688C22.5801 43.3039 21.4988 44.1178 20.7185 45.2105C19.9382 46.3031 19.5481 47.6856 19.5481 49.358C19.5481 51.0304 19.9382 52.4129 20.7185 53.5056C21.4988 54.5982 22.5801 55.4121 23.9624 55.9473C25.3446 56.4824 26.9164 56.75 28.6776 56.75Z" fill="#1E1E1E"/>
<path d="M36.7854 67V62.7632L42.3961 62.7632V67H36.7854Z" fill="#1E1E1E"/>
</svg>
