<svg width="80" height="80" viewBox="0 0 80 80" fill="none" xmlns="http://www.w3.org/2000/svg">
<rect width="80" height="80" fill="white"/>
<path d="M40.153 35.0117C36.9668 35.0117 34.2375 34.5162 31.9652 33.5251C29.7176 32.5093 27.9886 31.0723 26.7783 29.214C25.5928 27.3558 25 25.1259 25 22.5244C25 19.8981 25.5928 17.6559 26.7783 15.7977C27.9886 13.9394 29.7176 12.5148 31.9652 11.5237C34.2375 10.5079 36.9668 10 40.153 10C43.3639 10 46.0932 10.5079 48.3408 11.5237C50.5884 12.5148 52.305 13.9394 53.4906 15.7977C54.7009 17.6559 55.306 19.8981 55.306 22.5244C55.306 25.1259 54.7009 27.3558 53.4906 29.214C52.305 31.0723 50.5884 32.5093 48.3408 33.5251C46.0932 34.5162 43.3639 35.0117 40.153 35.0117ZM40.153 30.7378C42.1289 30.7378 43.8579 30.4405 45.3399 29.8458C46.8465 29.2512 48.0197 28.3469 48.8595 27.1328C49.724 25.9188 50.1562 24.3827 50.1562 22.5244C50.1562 20.6662 49.724 19.1301 48.8595 17.916C48.0197 16.702 46.8465 15.7977 45.3399 15.203C43.8579 14.5836 42.1289 14.2739 40.153 14.2739C38.2018 14.2739 36.4605 14.5836 34.9291 15.203C33.3978 15.7977 32.1998 16.702 31.3354 17.916C30.4709 19.1301 30.0387 20.6662 30.0387 22.5244C30.0387 24.3827 30.4709 25.9188 31.3354 27.1328C32.1998 28.3469 33.3978 29.2512 34.9291 29.8458C36.4605 30.4405 38.2018 30.7378 40.153 30.7378Z" fill="#1E1E1E"/>
<path d="M37.7448 60.8039H42.5612V69.8348H37.7448V60.8039ZM40.153 62.8851C36.9668 62.8851 34.2375 62.3895 31.9652 61.3985C29.7176 60.3827 27.9886 58.9456 26.7783 57.0874C25.5928 55.2292 25 52.9993 25 50.3978C25 47.7715 25.5928 45.5292 26.7783 43.671C27.9886 41.8128 29.7176 40.3882 31.9652 39.3971C34.2375 38.3813 36.9668 37.8734 40.153 37.8734C43.3639 37.8734 46.0932 38.3813 48.3408 39.3971C50.5884 40.3882 52.305 41.8128 53.4906 43.671C54.7009 45.5292 55.306 47.7715 55.306 50.3978C55.306 52.9993 54.7009 55.2292 53.4906 57.0874C52.305 58.9456 50.5884 60.3827 48.3408 61.3985C46.0932 62.3895 43.3639 62.8851 40.153 62.8851ZM40.153 58.6111C42.1289 58.6111 43.8579 58.3138 45.3399 57.7192C46.8465 57.1246 48.0197 56.2202 48.8595 55.0062C49.724 53.7922 50.1562 52.256 50.1562 50.3978C50.1562 48.5396 49.724 47.0034 48.8595 45.7894C48.0197 44.5754 46.8465 43.671 45.3399 43.0764C43.8579 42.457 42.1289 42.1473 40.153 42.1473C38.2018 42.1473 36.4605 42.457 34.9291 43.0764C33.3978 43.671 32.1998 44.5754 31.3354 45.7894C30.4709 47.0034 30.0387 48.5396 30.0387 50.3978C30.0387 52.256 30.4709 53.7922 31.3354 55.0062C32.1998 56.2202 33.3978 57.1246 34.9291 57.7192C36.4605 58.3138 38.2018 58.6111 40.153 58.6111Z" fill="#1E1E1E"/>
<path d="M49.1353 70V65.2925L55.3513 65.2925V70H49.1353Z" fill="#1E1E1E"/>
</svg>
